<mxfile host="65bd71144e">
    <diagram id="5fNo3or9mdZo12ajClWs" name="Page-1">
        <mxGraphModel dx="1294" dy="720" grid="1" gridSize="10" guides="1" tooltips="1" connect="1" arrows="1" fold="1" page="1" pageScale="1" pageWidth="850" pageHeight="1100" math="0" shadow="0">
            <root>
                <mxCell id="0"/>
                <mxCell id="1" parent="0"/>
                <mxCell id="2" value="Quản lý sinh viên" style="rounded=0;whiteSpace=wrap;html=1;" vertex="1" parent="1">
                    <mxGeometry x="365" y="60" width="120" height="60" as="geometry"/>
                </mxCell>
                <mxCell id="3" value="login" style="rounded=0;whiteSpace=wrap;html=1;" vertex="1" parent="1">
                    <mxGeometry x="40" y="200" width="120" height="60" as="geometry"/>
                </mxCell>
                <mxCell id="4" value="Cập nhật thông tin" style="rounded=0;whiteSpace=wrap;html=1;" vertex="1" parent="1">
                    <mxGeometry x="270" y="200" width="120" height="60" as="geometry"/>
                </mxCell>
                <mxCell id="5" value="Đăng ký đồ án, thực tập" style="rounded=0;whiteSpace=wrap;html=1;" vertex="1" parent="1">
                    <mxGeometry x="490" y="200" width="120" height="60" as="geometry"/>
                </mxCell>
                <mxCell id="6" value="Tìm kiếm sinh viên, đề tài đồ án, vị trí thực tập" style="rounded=0;whiteSpace=wrap;html=1;" vertex="1" parent="1">
                    <mxGeometry x="700" y="200" width="120" height="60" as="geometry"/>
                </mxCell>
                <mxCell id="14" value="" style="endArrow=none;html=1;" edge="1" parent="1">
                    <mxGeometry width="50" height="50" relative="1" as="geometry">
                        <mxPoint x="100" y="160" as="sourcePoint"/>
                        <mxPoint x="760" y="160" as="targetPoint"/>
                    </mxGeometry>
                </mxCell>
                <mxCell id="19" value="" style="endArrow=none;html=1;entryX=0.5;entryY=1;entryDx=0;entryDy=0;" edge="1" parent="1" target="2">
                    <mxGeometry width="50" height="50" relative="1" as="geometry">
                        <mxPoint x="425" y="160" as="sourcePoint"/>
                        <mxPoint x="510" y="340" as="targetPoint"/>
                    </mxGeometry>
                </mxCell>
                <mxCell id="20" value="" style="endArrow=none;html=1;exitX=0.5;exitY=0;exitDx=0;exitDy=0;" edge="1" parent="1" source="3">
                    <mxGeometry width="50" height="50" relative="1" as="geometry">
                        <mxPoint x="435" y="170" as="sourcePoint"/>
                        <mxPoint x="100" y="160" as="targetPoint"/>
                    </mxGeometry>
                </mxCell>
                <mxCell id="21" value="" style="endArrow=none;html=1;exitX=0.5;exitY=0;exitDx=0;exitDy=0;" edge="1" parent="1" source="4">
                    <mxGeometry width="50" height="50" relative="1" as="geometry">
                        <mxPoint x="304" y="270" as="sourcePoint"/>
                        <mxPoint x="330" y="160" as="targetPoint"/>
                    </mxGeometry>
                </mxCell>
                <mxCell id="22" value="" style="endArrow=none;html=1;exitX=0.5;exitY=0;exitDx=0;exitDy=0;" edge="1" parent="1" source="5">
                    <mxGeometry width="50" height="50" relative="1" as="geometry">
                        <mxPoint x="340" y="280" as="sourcePoint"/>
                        <mxPoint x="550" y="160" as="targetPoint"/>
                    </mxGeometry>
                </mxCell>
                <mxCell id="23" value="" style="endArrow=none;html=1;exitX=0.5;exitY=0;exitDx=0;exitDy=0;" edge="1" parent="1" source="6">
                    <mxGeometry width="50" height="50" relative="1" as="geometry">
                        <mxPoint x="560" y="280" as="sourcePoint"/>
                        <mxPoint x="760" y="160" as="targetPoint"/>
                    </mxGeometry>
                </mxCell>
                <mxCell id="25" value="" style="endArrow=none;html=1;entryX=0.088;entryY=1.008;entryDx=0;entryDy=0;entryPerimeter=0;" edge="1" parent="1" target="3">
                    <mxGeometry width="50" height="50" relative="1" as="geometry">
                        <mxPoint x="51" y="600" as="sourcePoint"/>
                        <mxPoint x="510" y="320" as="targetPoint"/>
                    </mxGeometry>
                </mxCell>
                <mxCell id="27" value="" style="group" vertex="1" connectable="0" parent="1">
                    <mxGeometry x="50" y="320" width="110" height="60" as="geometry"/>
                </mxCell>
                <mxCell id="16" value="Đăng nhập" style="rounded=0;whiteSpace=wrap;html=1;" vertex="1" parent="27">
                    <mxGeometry x="20" width="90" height="60" as="geometry"/>
                </mxCell>
                <mxCell id="26" value="" style="endArrow=none;html=1;exitX=0;exitY=0.5;exitDx=0;exitDy=0;" edge="1" parent="27" source="16">
                    <mxGeometry width="50" height="50" relative="1" as="geometry">
                        <mxPoint x="90" y="220" as="sourcePoint"/>
                        <mxPoint y="30" as="targetPoint"/>
                    </mxGeometry>
                </mxCell>
                <mxCell id="28" value="" style="group" vertex="1" connectable="0" parent="1">
                    <mxGeometry x="50" y="410" width="110" height="60" as="geometry"/>
                </mxCell>
                <mxCell id="29" value="Đăng ký" style="rounded=0;whiteSpace=wrap;html=1;" vertex="1" parent="28">
                    <mxGeometry x="20" width="90" height="60" as="geometry"/>
                </mxCell>
                <mxCell id="30" value="" style="endArrow=none;html=1;exitX=0;exitY=0.5;exitDx=0;exitDy=0;" edge="1" parent="28" source="29">
                    <mxGeometry width="50" height="50" relative="1" as="geometry">
                        <mxPoint x="90" y="220" as="sourcePoint"/>
                        <mxPoint y="30" as="targetPoint"/>
                    </mxGeometry>
                </mxCell>
                <mxCell id="31" value="" style="group" vertex="1" connectable="0" parent="1">
                    <mxGeometry x="50" y="500" width="110" height="60" as="geometry"/>
                </mxCell>
                <mxCell id="32" value="Đăng xuất" style="rounded=0;whiteSpace=wrap;html=1;" vertex="1" parent="31">
                    <mxGeometry x="20" width="90" height="60" as="geometry"/>
                </mxCell>
                <mxCell id="33" value="" style="endArrow=none;html=1;exitX=0;exitY=0.5;exitDx=0;exitDy=0;" edge="1" parent="31" source="32">
                    <mxGeometry width="50" height="50" relative="1" as="geometry">
                        <mxPoint x="90" y="220" as="sourcePoint"/>
                        <mxPoint y="30" as="targetPoint"/>
                    </mxGeometry>
                </mxCell>
                <mxCell id="34" value="" style="endArrow=none;html=1;" edge="1" parent="1">
                    <mxGeometry width="50" height="50" relative="1" as="geometry">
                        <mxPoint x="280" y="600" as="sourcePoint"/>
                        <mxPoint x="280" y="260" as="targetPoint"/>
                    </mxGeometry>
                </mxCell>
                <mxCell id="35" value="" style="group" vertex="1" connectable="0" parent="1">
                    <mxGeometry x="280" y="320" width="110" height="60" as="geometry"/>
                </mxCell>
                <mxCell id="36" value="Quên mật khẩu" style="rounded=0;whiteSpace=wrap;html=1;" vertex="1" parent="35">
                    <mxGeometry x="20" width="90" height="60" as="geometry"/>
                </mxCell>
                <mxCell id="37" value="" style="endArrow=none;html=1;exitX=0;exitY=0.5;exitDx=0;exitDy=0;" edge="1" parent="35" source="36">
                    <mxGeometry width="50" height="50" relative="1" as="geometry">
                        <mxPoint x="90" y="220" as="sourcePoint"/>
                        <mxPoint y="30" as="targetPoint"/>
                    </mxGeometry>
                </mxCell>
                <mxCell id="38" value="" style="group" vertex="1" connectable="0" parent="1">
                    <mxGeometry x="280" y="410" width="110" height="60" as="geometry"/>
                </mxCell>
                <mxCell id="39" value="cập nhật điểm (CPA)" style="rounded=0;whiteSpace=wrap;html=1;" vertex="1" parent="38">
                    <mxGeometry x="20" width="90" height="60" as="geometry"/>
                </mxCell>
                <mxCell id="40" value="" style="endArrow=none;html=1;exitX=0;exitY=0.5;exitDx=0;exitDy=0;" edge="1" parent="38" source="39">
                    <mxGeometry width="50" height="50" relative="1" as="geometry">
                        <mxPoint x="90" y="220" as="sourcePoint"/>
                        <mxPoint y="30" as="targetPoint"/>
                    </mxGeometry>
                </mxCell>
                <mxCell id="41" value="" style="group" vertex="1" connectable="0" parent="1">
                    <mxGeometry x="280" y="500" width="110" height="60" as="geometry"/>
                </mxCell>
                <mxCell id="42" value="cập nhật thông tin cá nhân" style="rounded=0;whiteSpace=wrap;html=1;" vertex="1" parent="41">
                    <mxGeometry x="20" width="90" height="60" as="geometry"/>
                </mxCell>
                <mxCell id="43" value="" style="endArrow=none;html=1;exitX=0;exitY=0.5;exitDx=0;exitDy=0;" edge="1" parent="41" source="42">
                    <mxGeometry width="50" height="50" relative="1" as="geometry">
                        <mxPoint x="90" y="220" as="sourcePoint"/>
                        <mxPoint y="30" as="targetPoint"/>
                    </mxGeometry>
                </mxCell>
                <mxCell id="44" value="" style="group" vertex="1" connectable="0" parent="1">
                    <mxGeometry x="500" y="320" width="110" height="60" as="geometry"/>
                </mxCell>
                <mxCell id="45" value="" style="rounded=0;whiteSpace=wrap;html=1;" vertex="1" parent="44">
                    <mxGeometry x="20" width="90" height="60" as="geometry"/>
                </mxCell>
                <mxCell id="46" value="" style="endArrow=none;html=1;exitX=0;exitY=0.5;exitDx=0;exitDy=0;" edge="1" parent="44" source="45">
                    <mxGeometry width="50" height="50" relative="1" as="geometry">
                        <mxPoint x="90" y="220" as="sourcePoint"/>
                        <mxPoint y="30" as="targetPoint"/>
                    </mxGeometry>
                </mxCell>
                <mxCell id="47" value="" style="endArrow=none;html=1;entryX=0.092;entryY=1;entryDx=0;entryDy=0;entryPerimeter=0;" edge="1" parent="1" target="5">
                    <mxGeometry width="50" height="50" relative="1" as="geometry">
                        <mxPoint x="501" y="600" as="sourcePoint"/>
                        <mxPoint x="290" y="270" as="targetPoint"/>
                    </mxGeometry>
                </mxCell>
            </root>
        </mxGraphModel>
    </diagram>
</mxfile>